<?xml version="1.0" encoding="UTF-8"?>
<svg width="11px" height="11px" viewBox="0 0 11 11" version="1.1" xmlns="http://www.w3.org/2000/svg" xmlns:xlink="http://www.w3.org/1999/xlink">
    <!-- Generator: Sketch 49.1 (51147) - http://www.bohemiancoding.com/sketch -->
    <title>设置</title>
    <desc>Created with Sketch.</desc>
    <defs></defs>
    <g id="Page-1" stroke="none" stroke-width="1" fill="none" fill-rule="evenodd">
        <g id="Apple-TV" transform="translate(-248.000000, -390.000000)">
            <g id="Group-14" transform="translate(158.000000, 75.000000)">
                <g id="左侧按钮2" transform="translate(90.000000, 0.000000)">
                    <g id="设置" transform="translate(1.000000, 316.000000)">
                        <path d="M8.66057654,2.74760479 C8.8793124,3.28757927 9,3.87941024 9,4.5 C9,5.12058976 8.8793124,5.71242073 8.66057654,6.25239521 C8.50679405,6.11342608 8.31195334,6.03036908 8.1,6.03036908 C7.60294373,6.03036908 7.2,6.4871488 7.2,7.05061514 C7.2,7.38423159 7.34125485,7.68044827 7.55966431,7.86660073 C6.96535243,8.42908403 6.22185308,8.82976931 5.39646041,9 C5.3558056,8.47921503 4.96997037,8.07086119 4.5,8.07086119 C4.03002963,8.07086119 3.6441944,8.47921503 3.60353959,9 C2.77814692,8.82976931 2.03464757,8.42908403 1.44033569,7.86660073 C1.65874515,7.68044827 1.8,7.38423159 1.8,7.05061514 C1.8,6.4871488 1.39705627,6.03036908 0.9,6.03036908 C0.688046658,6.03036908 0.493205953,6.11342608 0.339423461,6.25239521 C0.120687596,5.71242073 0,5.12058976 0,4.5 C0,3.87941024 0.120687596,3.28757927 0.339423461,2.74760479 C0.493205953,2.88657392 0.688046658,2.96963092 0.9,2.96963092 C1.39705627,2.96963092 1.8,2.5128512 1.8,1.94938486 C1.8,1.61576841 1.65874515,1.31955173 1.44033569,1.13339927 C2.03464757,0.570915966 2.77814692,0.170230687 3.60353959,-4.47177018e-13 C3.6441944,0.520784967 4.03002963,0.929138805 4.5,0.929138805 C4.96997037,0.929138805 5.3558056,0.520784967 5.39646041,-1.53422414e-13 C6.22185308,0.170230687 6.96535243,0.570915966 7.55966431,1.13339927 C7.34125485,1.31955173 7.2,1.61576841 7.2,1.94938486 C7.2,2.5128512 7.60294373,2.96963092 8.1,2.96963092 C8.31195334,2.96963092 8.50679405,2.88657392 8.66057654,2.74760479 Z" id="Combined-Shape" stroke="#FFFFFF" fill="#909196" stroke-linecap="round" stroke-linejoin="round"></path>
                        <circle id="Oval-8" fill="#FFFFFF" cx="4.5" cy="4.5" r="1.5"></circle>
                    </g>
                </g>
            </g>
        </g>
    </g>
</svg>