<?xml version="1.0" standalone="no"?>
<!DOCTYPE svg PUBLIC "-//W3C//DTD SVG 1.1//EN" "http://www.w3.org/Graphics/SVG/1.1/DTD/svg11.dtd" >
<svg xmlns="http://www.w3.org/2000/svg">
<metadata>Generated by IcoMoon</metadata>
<defs>
<font id="icomoon" horiz-adv-x="1024">
<font-face units-per-em="1024" ascent="960" descent="-64" />
<missing-glyph horiz-adv-x="1024" />
<glyph unicode="&#x20;" horiz-adv-x="512" d="" />
<glyph unicode="&#xe900;" glyph-name="add" d="M534.945-34.998l-0.007 460.223 458.26-0.004c12.569 0.014 22.78 10.223 22.792 22.791-0.031 12.585-10.223 22.777-22.792 22.792l-458.261-0.010-0.006 460.206c0.014 12.631-10.225 22.871-22.855 22.855-12.599 0.015-22.839-10.224-22.839-22.838l-0.002-460.224-459.277-0.009c-12.583 0.001-22.778-10.193-22.776-22.774-0.001-12.588 10.206-22.795 22.779-22.779l459.276-0.004-0.003-460.225c-0.002-12.617 10.238-22.857 22.854-22.857 12.618 0 22.843 10.225 22.858 22.857z" />
<glyph unicode="&#xe901;" glyph-name="back" d="M1000.727 471.273h-923.927l314.182 335.127c9.309 9.309 9.309 23.273 0 32.582s-23.273 9.309-32.582 0l-351.418-374.691c-9.309-9.309-9.309-23.273 0-32.582l351.418-374.691c9.309-9.309 23.273-9.309 32.582 0s9.309 23.273 0 32.582l-314.182 335.127h923.927c13.964 0 23.273 9.309 23.273 23.273s-9.309 23.273-23.273 23.273z" />
<glyph unicode="&#xe902;" glyph-name="box" d="M58.187 698.486l431.564-244.553c7.479-4.238 16.634-4.238 24.114 0l431.564 244.553c17.028 9.649 16.386 34.397-1.12 43.15l-431.564 215.782c-6.885 3.442-14.989 3.442-21.873 0l-431.564-215.782c-17.506-8.753-18.148-33.501-1.12-43.15v0zM82.301 741.039l-1.12-43.15 431.564 215.782h-21.873l431.564-215.782-1.12 43.15-431.564-244.553h24.114l-431.564 244.553zM477.352 455.070v-469.864c0-18.72 20.174-30.499 36.476-21.297l460.335 259.837c7.683 4.337 12.434 12.475 12.434 21.297v316.48c0 13.506-10.949 24.455-24.455 24.455s-24.455-10.949-24.455-24.455v-316.48l12.434 21.297-460.335-259.837 36.476-21.297v469.864c0 13.506-10.949 24.455-24.455 24.455s-24.455-10.949-24.455-24.455v0zM514.422 6.157l-431.564 259.837 11.841-20.951v460.335c0 13.506-10.949 24.455-24.455 24.455s-24.455-10.949-24.455-24.455v-460.335c0-8.577 4.493-16.527 11.841-20.951l431.564-259.837c11.571-6.967 26.599-3.234 33.565 8.337s3.234 26.599-8.337 33.565v0zM172.745 511.782l143.855-86.313c11.582-6.949 26.603-3.193 33.552 8.388s3.193 26.603-8.388 33.552l-143.855 86.313c-11.582 6.949-26.603 3.193-33.552-8.388s-3.193-26.603 8.388-33.552v0z" />
<glyph unicode="&#xe903;" glyph-name="cart" d="M830.014 829.619h-59.385c-13.572 0-24.573-11.002-24.573-24.573s11.002-24.573 24.573-24.573h59.385c9.033 0 16.382-7.349 16.382-16.382v-757.504c0-9.033-7.349-16.382-16.382-16.382h-637.095c-9.033 0-16.382 7.349-16.382 16.382v757.504c0 9.033 7.349 16.382 16.382 16.382h60.71c13.572 0 24.573 11.002 24.573 24.573s-11.002 24.573-24.573 24.573h-60.71c-36.133 0-65.529-29.396-65.529-65.529v-757.504c0-36.133 29.396-65.529 65.529-65.529h637.095c36.133 0 65.529 29.396 65.529 65.529v757.504c0 36.133-29.396 65.529-65.529 65.529zM328.066 780.473h368.612c13.572 0 24.573 11.002 24.573 24.573s-11.002 24.573-24.573 24.573h-51.538c-6.73 71.774-64.563 128.038-134.686 128.038-70.122 0-127.955-56.264-134.685-128.038h-47.703c-13.572 0-24.573-11.002-24.573-24.573s11.002-24.573 24.573-24.573zM510.454 908.512c43.11 0 78.928-34.288 85.218-78.891h-170.435c6.29 44.602 42.108 78.891 85.217 78.891zM258.789 593.757c0-13.572 11.002-24.573 24.573-24.573h455.294c13.572 0 24.573 11.002 24.573 24.573s-11.002 24.573-24.573 24.573h-455.294c-13.572 0-24.573-11.002-24.573-24.573zM738.656 405.363h-455.294c-13.572 0-24.573-11.002-24.573-24.573s11.002-24.573 24.573-24.573h455.294c13.572 0 24.573 11.002 24.573 24.573s-11.002 24.573-24.573 24.573zM738.656 192.395h-455.294c-13.572 0-24.573-11.002-24.573-24.573s11.002-24.573 24.573-24.573h455.294c13.572 0 24.573 11.002 24.573 24.573s-11.002 24.573-24.573 24.573z" />
<glyph unicode="&#xe904;" glyph-name="edit" d="M851.925 565.547l-150.659 186.931c-5.546 6.882-15.399 7.786-22.016 2.010l-412.664-360.172c-1.897-1.654-3.387-3.751-4.355-6.123l-91.602-225.288c-4.916-12.089 5.258-24.955 17.609-22.25l232.283 50.854c2.513 0.556 4.859 1.737 6.825 3.456l424.579 370.582zM200.577 170.253l73.473 164.555c4.82 10.8 18.794 12.723 26.145 3.595l79.158-98.229c7.434-9.228 2.992-23.362-8.242-26.241l-170.535-43.68zM424.706 235.124l-110.475 137.094c-5.545 6.879-4.677 17.139 1.933 22.911l263.244 229.765c6.615 5.777 16.476 4.877 22.021-2.002l100.427-124.632c5.549-6.887 4.686-17.144-1.929-22.915l-275.221-240.222zM615.368 656.272l59.986 52.361c6.618 5.781 16.475 4.872 22.025-2.006l100.431-124.637c5.545-6.878 4.686-17.138-1.932-22.91l-48.014-41.903c-6.619-5.777-16.476-4.877-22.021 2.006l-110.476 137.089zM422.179 339.055l191.799 167.418c6.618 5.766 7.478 16.023 1.928 22.91v0c-5.545 6.888-15.407 7.781-22.015 2.007l-191.799-167.413c-6.619-5.766-7.482-16.028-1.938-22.906v-0.004c5.546-6.883 15.408-7.786 22.026-2.012v0z" />
<glyph unicode="&#xe905;" glyph-name="ellipsis" d="M147.012 529.109c-44.791 0-81.108-36.304-81.108-81.109 0-44.779 36.316-81.108 81.108-81.108s81.109 36.329 81.109 81.108c0 44.805-36.316 81.109-81.109 81.109zM511.999 529.109c-44.791 0-81.108-36.304-81.108-81.109 0-44.779 36.316-81.108 81.108-81.108s81.109 36.329 81.109 81.108c0 44.805-36.317 81.109-81.109 81.109zM876.987 529.109c-44.791 0-81.108-36.304-81.108-81.109 0-44.779 36.316-81.108 81.108-81.108s81.108 36.329 81.108 81.108c-0.001 44.805-36.317 81.109-81.108 81.109z" />
<glyph unicode="&#xe906;" glyph-name="enlarge" d="M430.080 401.92l-276.48-276.48v168.96c0 15.36-10.24 25.6-25.6 25.6s-25.6-10.24-25.6-25.6v-230.4c0-7.68 2.56-12.8 7.68-17.92s10.24-7.68 17.92-7.68h230.4c15.36 0 25.6 10.24 25.6 25.6s-10.24 25.6-25.6 25.6h-168.96l276.48 276.48-35.84 35.84zM913.92 849.92c-5.12 5.12-12.8 7.68-17.92 7.68h-230.4c-15.36 0-25.6-10.24-25.6-25.6s10.24-25.6 25.6-25.6h168.96l-276.48-276.48 35.84-35.84 276.48 276.48v-168.96c0-15.36 10.24-25.6 25.6-25.6s25.6 10.24 25.6 25.6v230.4c0 7.68-2.56 12.8-7.68 17.92z" />
<glyph unicode="&#xe907;" glyph-name="eye" d="M512.339 221.713c165.547 0 390.098 169.18 405.704 215.688-6.090 50.951-217.428 235.212-405.704 235.212-179.098 0-405.809-146.767-405.831-236.334 4.711-44.126 222.269-214.566 405.831-214.566zM512.339 176.601c-188.066 0-450.899 177-450.899 259.29 0 130.4 264.405 281.836 450.899 281.836 204.079 0 450.905-198.331 450.905-281.836 0-69.485-269.779-259.29-450.905-259.29v0 0 0zM512.339 334.438c62.134 0 112.729 50.594 112.729 112.729 0 62.131-50.595 112.722-112.729 112.722-62.133 0-112.724-50.591-112.724-112.722 0-62.135 50.591-112.729 112.724-112.729zM512.339 289.326c-87.181 0-157.837 70.66-157.837 157.841 0 87.178 70.656 157.835 157.837 157.835 87.186 0 157.84-70.656 157.84-157.835 0-87.181-70.654-157.841-157.84-157.841v0 0 0z" />
<glyph unicode="&#xe908;" glyph-name="feedback" d="M512 78.933c-29.867 0-59.733 2.133-87.467 6.4h-6.4c-10.667 0-21.333-4.267-29.867-10.667l-117.333-110.933c-4.267-4.267-10.667-6.4-14.933-6.4-10.667 0-21.333 8.533-21.333 21.333v149.333c0 14.933-8.533 29.867-21.333 36.267-128 78.933-213.333 194.133-213.333 345.6 0 247.467 228.267 428.8 512 428.8s512-181.333 512-428.8-228.267-430.933-512-430.933zM512 896c-266.667 0-469.333-166.4-469.333-386.133 0-125.867 66.133-228.267 194.133-307.2 25.6-14.933 40.533-42.667 40.533-72.533v-98.133l81.067 76.8c14.933 14.933 36.267 23.467 57.6 23.467h12.8c27.733-4.267 55.467-6.4 81.067-6.4 266.667 0 469.333 166.4 469.333 386.133 2.133 217.6-200.533 384-467.2 384zM725.333 445.867c-23.467 0-42.667 19.2-42.667 42.667s19.2 42.667 42.667 42.667 42.667-19.2 42.667-42.667-19.2-42.667-42.667-42.667zM512 445.867c-23.467 0-42.667 19.2-42.667 42.667s19.2 42.667 42.667 42.667 42.667-19.2 42.667-42.667-19.2-42.667-42.667-42.667zM298.667 445.867c-23.467 0-42.667 19.2-42.667 42.667s19.2 42.667 42.667 42.667 42.667-19.2 42.667-42.667-19.2-42.667-42.667-42.667z" />
<glyph unicode="&#xe909;" glyph-name="font" d="M435.008 960l-403.008-1024h126.208l108.928 286.848h470.464l108.992-286.848h127.68l-403.072 1024h-136.192zM500.992 833.792h5.696l193.6-512.064h-395.776l196.48 512.064z" />
<glyph unicode="&#xe90a;" glyph-name="pic" d="M869.545 42.593l-730.614 0.42c-0.635 0.015-1.265 0.041-1.894 0.108-25.933 2.596-49.92 14.679-67.523 34.017-17.736 19.487-27.505 44.733-27.505 71.086v549.755c0 58.245 47.391 105.636 105.636 105.636h721.9c58.25 0 105.636-47.391 105.636-105.636v-235.382c0-0.282-0.010-0.568-0.020-0.86-0.026-0.517-2.053-53.985 16.159-89.196 4.915-9.518 1.193-21.222-8.32-26.143s-21.228-1.208-26.148 8.305c-22.231 42.982-20.71 101.919-20.48 108.283v234.993c0 36.844-29.978 66.826-66.826 66.826h-721.9c-36.849 0-66.831-29.983-66.831-66.826v-549.76c0-34.186 25.385-62.566 59.203-66.396l217.544-0.425h511.985c36.849 0 66.836 29.972 66.836 66.821l-0.404 97.787c-0.108 1.812-1.654 20.403-20.403 44.349-0.051 0.067-0.097 0.128-0.148 0.195l-22.671 29.742-122.348 161.91c-0.435 0.568-40.704 53.074-90.051 47.519-40.008-4.5-79.273-47.14-113.546-123.3-18.386-40.847-36.163-71.255-54.359-92.933-18.381-21.903-37.238-34.99-57.667-39.997-45.322-11.11-84.593 19.825-126.177 52.582l-5.274 4.147c-48.594 38.19-71.762 29.46-165.253-62.198-7.654-7.506-19.937-7.383-27.438 0.266-7.501 7.66-7.378 19.942 0.271 27.443 48.696 47.744 80.932 75.904 111.77 87.967 34.816 13.624 67.087 6.538 104.627-22.958l5.315-4.183c35.41-27.884 65.987-51.973 92.923-45.363 26.742 6.554 55.629 43.955 85.878 111.171 40.852 90.778 89.59 139.884 144.87 145.961 71.444 7.849 122.972-59.909 125.128-62.802l122.25-161.761 22.538-29.578c27.428-35.092 28.529-64.333 28.564-67.558 0-0.041 0-0.092 0-0.128l0.404-98.166c0-58.348-47.386-105.738-105.636-105.738v0zM305.060 507.658c-44.175 0-80.113 35.937-80.113 80.113s35.942 80.113 80.113 80.113 80.113-35.932 80.113-80.108c0-44.18-35.942-80.118-80.113-80.118v0zM305.060 629.084c-22.779 0-41.313-18.529-41.313-41.308 0-22.774 18.534-41.308 41.313-41.308s41.308 18.534 41.308 41.308c0 22.779-18.534 41.308-41.308 41.308v0z" />
<glyph unicode="&#xe90b;" glyph-name="save" d="M768 857.6v-307.2c0-34.816-26.624-61.44-61.44-61.44h-389.12c-34.816 0-61.44 26.624-61.44 61.44v307.2h-92.16c-34.816 0-61.44-26.624-61.44-61.44v-706.56c0-34.816 26.624-61.44 61.44-61.44h706.56c34.816 0 61.44 26.624 61.44 61.44v104.448c0 12.288 8.192 20.48 20.48 20.48s20.48-8.192 20.48-20.48v-104.448c0-57.344-45.056-102.4-102.4-102.4h-706.56c-57.344 0-102.4 45.056-102.4 102.4v706.56c0 57.344 45.056 102.4 102.4 102.4h706.56c57.344 0 102.4-45.056 102.4-102.4v-417.792c0-12.288-8.192-20.48-20.48-20.48s-20.48 8.192-20.48 20.48v417.792c0 34.816-26.624 61.44-61.44 61.44h-102.4zM296.96 857.6v-307.2c0-10.24 8.192-20.48 20.48-20.48h389.12c10.24 0 20.48 8.192 20.48 20.48v307.2h-430.080zM598.016 765.44c0 12.288 8.192 20.48 20.48 20.48s20.48-8.192 20.48-20.48v-122.88c0-12.288-8.192-20.48-20.48-20.48s-20.48 8.192-20.48 20.48v122.88z" />
<glyph unicode="&#xe90c;" glyph-name="set" d="M580.193-62.543h-136.738c-14.287 0-26.843 9.471-30.769 23.208l-41.943 146.79-133.479-74.152c-12.494-6.938-28.070-4.755-38.171 5.35l-96.688 96.719c-10.1 10.104-12.28 25.677-5.342 38.165l74.152 133.469-146.81 41.953c-13.737 3.926-23.208 16.481-23.208 30.769v136.75c0 14.288 9.473 26.845 23.211 30.77l146.795 41.932-74.142 133.466c-6.938 12.489-4.756 28.065 5.346 38.168l96.688 96.688c10.105 10.104 25.683 12.283 38.169 5.346l133.478-74.158 41.944 146.802c3.925 13.738 16.481 23.209 30.769 23.209h136.738c14.287 0 26.844-9.471 30.769-23.209l41.944-146.801 133.477 74.157c12.488 6.938 28.064 4.758 38.167-5.344l96.701-96.689c10.104-10.103 12.286-25.679 5.348-38.169l-74.146-133.466 146.799-41.932c13.738-3.925 23.211-16.481 23.211-30.77v-136.75c0-14.287-9.471-26.843-23.208-30.769l-146.813-41.953 74.156-133.468c6.938-12.489 4.758-28.064-5.344-38.167l-96.701-96.719c-10.101-10.104-25.676-12.288-38.169-5.349l-133.479 74.152-41.943-146.79c-3.927-13.737-16.482-23.208-30.769-23.208zM467.591 1.457h88.465l46.386 162.337c2.683 9.387 9.503 17.036 18.522 20.772 9.020 3.735 19.252 3.151 27.786-1.591l147.611-82.003 62.567 62.579-82.010 147.604c-4.741 8.534-5.328 18.767-1.592 27.787s11.385 15.841 20.772 18.523l162.362 46.396v88.474l-162.349 46.374c-9.388 2.682-17.038 9.502-20.774 18.522s-3.151 19.253 1.59 27.787l81.999 147.603-62.562 62.555-147.613-82.012c-8.533-4.741-18.767-5.329-27.786-1.592-9.021 3.736-15.842 11.386-18.523 20.773l-46.388 162.351h-88.463l-46.388-162.351c-2.682-9.388-9.503-17.037-18.523-20.773-9.019-3.734-19.252-3.149-27.786 1.592l-147.612 82.012-62.554-62.554 81.996-147.604c4.741-8.535 5.326-18.768 1.59-27.787-3.736-9.021-11.387-15.841-20.774-18.522l-162.344-46.373v-88.475l162.358-46.396c9.388-2.683 17.037-9.504 20.772-18.523 3.735-9.021 3.149-19.252-1.592-27.786l-82.008-147.606 62.559-62.577 147.61 82.002c8.534 4.74 18.767 5.326 27.786 1.591s15.84-11.386 18.522-20.772l46.388-162.337zM511.829 237.477c-116.141 0-210.627 94.463-210.627 210.573 0 116.154 94.486 210.652 210.627 210.652 56.258 0 109.147-21.912 148.926-61.7 39.776-39.786 61.683-92.685 61.683-148.952 0-56.249-21.907-109.13-61.688-148.901-39.777-39.77-92.665-61.672-148.921-61.672zM511.829 594.702c-80.851 0-146.627-65.788-146.627-146.652 0-80.82 65.776-146.573 146.627-146.573 80.84 0 146.608 65.753 146.608 146.573 0.001 80.864-65.768 146.652-146.608 146.652z" />
<glyph unicode="&#xe90d;" glyph-name="Share-Icon" d="M840.453 631.547v-656.906h-656.906v656.906h231.849v38.642h-270.491v-734.189h734.189v734.189h-270.491v-38.642h231.849zM531.321 893.064l125.301-125.301 27.324 27.324-163.942 163.942-6.076-6.076-6.076 6.076-163.942-163.942 27.324-27.324 121.446 121.446v-586.115h38.642v589.97z" />
<glyph unicode="&#xe90e;" glyph-name="Smile" d="M927.387 447.999c0 229.411-185.974 415.385-415.385 415.385s-415.386-185.974-415.386-415.385 185.974-415.386 415.385-415.386c95.255 0 185.647 32.183 258.617 90.308 8.753 6.972 10.197 19.721 3.224 28.474s-19.721 10.197-28.474 3.224c-65.858-52.459-147.368-81.48-233.367-81.48-207.029 0-374.86 167.831-374.86 374.86s167.83 374.86 374.86 374.86 374.86-167.831 374.86-374.86c0-70.983-19.742-139.005-56.449-197.925-5.917-9.498-3.014-21.995 6.484-27.913s21.995-3.014 27.913 6.484c40.684 65.303 62.578 140.74 62.578 219.354zM370.162 458.13c27.977 0 50.657 22.68 50.657 50.657s-22.68 50.657-50.657 50.657c-27.977 0-50.657-22.68-50.657-50.657s22.68-50.657 50.657-50.657zM674.103 458.13c27.977 0 50.657 22.68 50.657 50.657s-22.68 50.657-50.657 50.657c-27.977 0-50.657-22.68-50.657-50.657s22.68-50.657 50.657-50.657zM382.833 239.681c35.192-28.153 81.425-44.966 139.3-44.966s104.108 16.812 139.3 44.966c21.51 17.208 34.638 34.713 40.925 47.286 5.005 10.009 0.948 22.181-9.062 27.185-10.009 5.005-22.181 0.948-27.185-9.062-0.745-1.489-2.808-4.888-6.318-9.568-6.136-8.182-13.986-16.444-23.676-24.196-28.129-22.503-65.479-36.085-113.984-36.085s-85.855 13.582-113.984 36.085c-9.69 7.752-17.54 16.015-23.676 24.196-3.51 4.68-5.574 8.079-6.318 9.568-5.005 10.009-17.176 14.066-27.185 9.062s-14.066-17.176-9.062-27.185c6.286-12.574 19.415-30.078 40.925-47.286z" />
<glyph unicode="&#xe90f;" glyph-name="menu" d="M150.528 659.968c0-27.146 22.006-49.152 49.152-49.152s49.152 22.006 49.152 49.152v0c0 27.146-22.006 49.152-49.152 49.152s-49.152-22.006-49.152-49.152v0zM402.432 616.96h427.008c23.552 0 44.032 19.456 44.032 44.032s-20.48 43.008-44.032 43.008h-427.008c-23.552 0-44.032-19.456-44.032-44.032s19.456-43.008 44.032-43.008zM150.528 448c0-27.146 22.006-49.152 49.152-49.152s49.152 22.006 49.152 49.152v0c0 27.146-22.006 49.152-49.152 49.152s-49.152-22.006-49.152-49.152v0zM829.44 491.008h-427.008c-23.552 0-44.032-19.456-44.032-44.032s19.456-44.032 44.032-44.032h427.008c23.552 0 44.032 19.456 44.032 44.032s-20.48 44.032-44.032 44.032zM150.528 235.008c0-27.146 22.006-49.152 49.152-49.152s49.152 22.006 49.152 49.152v0c0 27.146-22.006 49.152-49.152 49.152s-49.152-22.006-49.152-49.152v0zM829.44 279.040h-427.008c-23.552 0-44.032-19.456-44.032-44.032s19.456-44.032 44.032-44.032h427.008c23.552 0 44.032 19.456 44.032 44.032s-20.48 44.032-44.032 44.032z" />
<glyph unicode="&#xe910;" glyph-name="uE703-triangle-up" d="M238.304 325.816l269.959 269.958 269.962-269.958z" />
<glyph unicode="&#xe911;" glyph-name="uE704-triangle-down" d="M778.225 561.187l-269.959-269.958-269.962 269.958z" />
<glyph unicode="&#xe912;" glyph-name="imgs" d="M433.884 258.628c4.734-7.101 11.836-9.469 18.937-9.469s14.203 2.367 18.937 9.469l94.686 125.459 201.208-267.489h-570.485c-14.203 0-23.672-9.469-23.672-23.672s9.469-23.672 23.672-23.672h575.219c40.242 0 71.015 30.773 71.015 71.015v473.431c0 40.242-30.773 71.015-71.015 71.015h-639.132c-40.242 0-71.015-30.773-71.015-71.015v-475.798c0-9.469 7.101-18.937 16.57-23.672 9.469-2.367 21.304 2.367 26.039 9.469l196.474 324.3 132.561-189.372zM282.386 507.179l-170.435-284.059v390.581c0 14.203 9.469 23.672 23.672 23.672h639.132c14.203 0 23.672-9.469 23.672-23.672v-456.861l-210.677 279.324c-4.734 7.101-11.836 9.469-18.937 9.469s-14.203-2.367-18.937-9.469l-94.686-123.092-132.561 196.474c-4.734 7.101-11.836 9.469-21.304 9.469-7.101 0-14.203-4.734-18.937-11.836zM886.011 805.441h-639.132c-14.203 0-23.672-9.469-23.672-23.672s9.469-23.672 23.672-23.672h639.132c14.203 0 23.672-9.469 23.672-23.672v-475.798c0-14.203 9.469-23.672 23.672-23.672s23.672 9.469 23.672 23.672v475.798c0 37.874-30.773 71.015-71.015 71.015z" />
<glyph unicode="&#xe913;" glyph-name="map" d="M451.674-34.396c27.21-30.623 72.581-30.413 99.726 0.467 2.356 2.541 7.421 8.132 14.472 16.081 11.7 13.189 24.725 28.224 38.744 44.85 40.046 47.494 80.093 98.28 117.514 150.352 37.529 52.222 70.363 102.937 97.185 151.188 49.371 88.812 76.685 165.915 76.685 229.173 0 222.176-176.698 402.286-394.667 402.286s-394.667-180.109-394.667-402.286c0-63.313 27.385-140.52 76.879-229.477 26.826-48.214 59.647-98.889 97.153-151.071 37.456-52.111 77.54-102.941 117.623-150.478 14.032-16.641 27.068-31.69 38.78-44.892 7.058-7.956 12.128-13.552 14.88-16.534l-0.309 0.341zM486.823-1.321c-2.541 2.753-7.398 8.113-14.237 15.823-11.45 12.907-24.222 27.651-37.984 43.971-39.327 46.639-78.653 96.508-115.313 147.512-36.48 50.754-68.306 99.891-94.131 146.307-45.769 82.262-70.653 152.417-70.653 205.422 0 195.246 155.28 353.524 346.828 353.524s346.828-158.278 346.828-353.524c0-52.96-24.816-123.013-70.468-205.134-25.82-46.448-57.656-95.621-94.157-146.412-36.625-50.964-75.913-100.788-115.201-147.384-13.748-16.305-26.508-31.034-37.947-43.929-6.832-7.702-11.684-13.057-14.223-15.807-8.623-9.798-20.911-9.855-29.035-0.712l-0.309 0.341zM714.956 492.971c8.963 24.401 13.61 50.36 13.61 76.934 0 121.187-96.381 219.429-215.273 219.429s-215.273-98.242-215.273-219.429c0-121.187 96.381-219.429 215.273-219.429 35.711 0 70.217 8.892 101.080 25.649 11.659 6.331 16.076 21.097 9.866 32.981s-20.697 16.387-32.356 10.056c-23.981-13.021-50.771-19.924-78.589-19.924-92.471 0-167.434 76.41-167.434 170.667s74.963 170.667 167.434 170.667c92.471 0 167.434-76.41 167.434-170.667 0-20.713-3.61-40.882-10.572-59.835-4.632-12.61 1.642-26.661 14.013-31.382s26.156 1.674 30.788 14.284v0z" />
<glyph unicode="&#xe914;" glyph-name="video" d="M49.771 760.896h609.003c19.925-5.675 33.493-14.336 42.24-25.024 8.448-10.24 11.157-20.117 11.157-25.067v-214.251l262.357 168.683v-414.827l-262.357 168.661v-148.096c-0.007-0.217-0.011-0.472-0.011-0.729 0-13.75 11.146-24.896 24.896-24.896s24.896 11.146 24.896 24.896c0 0.256-0.004 0.512-0.012 0.766l0.001-0.037v62.443l262.379-174.187v597.163l-262.4-168.661v123.093c0 15.488-5.696 36.267-22.464 56.661-16 19.477-39.573 34.133-71.104 42.368l-3.093 0.811h-665.259v-608.96l0.768-3.029c2.987-11.669 9.173-27.989 19.691-44.629 18.731-29.653 44.907-48.725 79.147-49.067h637.44c13.433 0.406 24.167 11.392 24.167 24.885s-10.735 24.48-24.13 24.884l-0.037 0.001h-637.205c-14.4 0.149-26.752 9.131-37.333 25.877-5.064 7.963-9.393 17.132-12.52 26.84l-0.237 0.851v552.576zM205.909 635.52c0.007-0.29 0.010-0.632 0.010-0.974 0-25.685-20.822-46.507-46.507-46.507s-46.507 20.822-46.507 46.507c0 0.358 0.004 0.714 0.012 1.070l-0.001-0.053c0.564 25.248 21.165 45.5 46.496 45.5 25.338 0 45.944-20.264 46.495-45.47l0.001-0.051z" />
</font>
</defs>
</svg>
